<?xml version="1.0" encoding="UTF-8" standalone="no"?>
<svg
   width="24"
   height="24"
   viewBox="0 0 24 24"
   fill="none"
   stroke="currentColor"
   stroke-width="2"
   stroke-linecap="round"
   stroke-linejoin="round"
   class="icon icon-tabler icons-tabler-outline icon-tabler-device-airpods-case"
   version="1.1"
   id="svg4"
   sodipodi:docname="airpods.svg"
   inkscape:version="1.4 (e7c3feb1, 2024-10-09)"
   xmlns:inkscape="http://www.inkscape.org/namespaces/inkscape"
   xmlns:sodipodi="http://sodipodi.sourceforge.net/DTD/sodipodi-0.dtd"
   xmlns="http://www.w3.org/2000/svg"
   xmlns:svg="http://www.w3.org/2000/svg">
  <defs
     id="defs4" />
  <sodipodi:namedview
     id="namedview4"
     pagecolor="#ffffff"
     bordercolor="#000000"
     borderopacity="0.25"
     inkscape:showpageshadow="2"
     inkscape:pageopacity="0.0"
     inkscape:pagecheckerboard="0"
     inkscape:deskcolor="#d1d1d1"
     inkscape:zoom="22.45605"
     inkscape:cx="3.8965001"
     inkscape:cy="13.114506"
     inkscape:window-width="1632"
     inkscape:window-height="990"
     inkscape:window-x="1657"
     inkscape:window-y="105"
     inkscape:window-maximized="0"
     inkscape:current-layer="svg4" />
  <path
     stroke="none"
     d="M0 0h24v24H0z"
     fill="none"
     id="path1" />
  <path
     d="M21 10h-18"
     id="path2" />
  <path
     d="M3 8a4 4 0 0 1 4 -4h10a4 4 0 0 1 4 4v8a4 4 0 0 1 -4 4h-10a4 4 0 0 1 -4 -4l0 -8"
     id="path3" />
  <path
     d="M7 10v1.5a1.5 1.5 0 0 0 1.5 1.5h7a1.5 1.5 0 0 0 1.5 -1.5v-1.5"
     id="path4" />
  <g
     id="g4"
     transform="translate(0.11523519)">
    <path
       d="m 12.737432,15.447078 0.04504,0.0023 c 0.269514,0.01828 0.647211,0.190922 0.849629,0.487387 a 0.18847135,0.18847136 0 0 1 -0.06483,0.271398 c -0.0094,0.0053 -0.07011,0.02978 -0.09367,0.0409 a 0.78215604,0.78215604 0 0 0 -0.136077,0.08124 c -0.115721,0.08689 -0.178669,0.190167 -0.17754,0.319272 0.0019,0.166797 0.0639,0.274036 0.170944,0.347917 0.0392,0.02696 0.08217,0.04768 0.125522,0.0622 0.02374,0.0081 0.08029,0.02186 0.08368,0.02299 a 0.18847135,0.18847136 0 0 1 0.124768,0.17754 c 0,0.493985 -0.572952,1.202637 -0.996259,1.202637 -0.148893,0 -0.239736,-0.01715 -0.373739,-0.05936 l -0.01847,-0.0058 c -0.08726,-0.02751 -0.132307,-0.03619 -0.213538,-0.03619 -0.09801,0 -0.162651,0.0113 -0.286101,0.04467 l -0.03713,0.01 c -0.108372,0.02884 -0.181688,0.0426 -0.282708,0.04673 -0.518108,2.8e-5 -0.99607,-0.959858 -0.99607,-1.709784 0,-0.729385 0.336611,-1.304223 0.996259,-1.304223 0.05597,0 0.112706,0.0085 0.17132,0.02413 0.07595,0.02016 0.145876,0.049 0.244259,0.09574 0.148328,0.07049 0.178672,0.08293 0.190168,0.08293 h 0.0031 c 0.0057,-5.65e-4 0.02412,-0.0088 0.199026,-0.08613 0.199956,-0.08801 0.351299,-0.129103 0.51753,-0.116099 l -0.04523,-0.0023 z"
       id="path2-7"
       style="fill:#1a1a1a;stroke-width:0.188471" />
    <path
       d="m 12.534071,14.50491 a 0.18847135,0.18847136 0 0 1 0.188471,0.188471 0.56541406,0.56541406 0 0 1 -0.565414,0.565414 0.18847135,0.18847136 0 0 1 -0.188472,-0.188471 0.56541406,0.56541406 0 0 1 0.565415,-0.565414 z"
       id="path3-7"
       style="fill:#1a1a1a;stroke-width:0.188471" />
  </g>
</svg>
