<?xml version="1.0" encoding="UTF-8" standalone="no"?>
<svg
   viewBox="0 0 24 24"
   version="1.1"
   id="svg1"
   sodipodi:docname="auracast.svg"
   inkscape:version="1.4 (e7c3feb1, 2024-10-09)"
   inkscape:export-filename="auracast.svg"
   inkscape:export-xdpi="96"
   inkscape:export-ydpi="96"
   width="24"
   height="24"
   xmlns:inkscape="http://www.inkscape.org/namespaces/inkscape"
   xmlns:sodipodi="http://sodipodi.sourceforge.net/DTD/sodipodi-0.dtd"
   xmlns="http://www.w3.org/2000/svg"
   xmlns:svg="http://www.w3.org/2000/svg">
  <defs
     id="defs1" />
  <sodipodi:namedview
     id="namedview1"
     pagecolor="#ffffff"
     bordercolor="#000000"
     borderopacity="0.25"
     inkscape:showpageshadow="2"
     inkscape:pageopacity="0.0"
     inkscape:pagecheckerboard="0"
     inkscape:deskcolor="#d1d1d1"
     inkscape:zoom="18.074707"
     inkscape:cx="12.061053"
     inkscape:cy="12.254694"
     inkscape:window-width="1784"
     inkscape:window-height="904"
     inkscape:window-x="55"
     inkscape:window-y="90"
     inkscape:window-maximized="0"
     inkscape:current-layer="svg1"
     inkscape:export-bgcolor="#ffffff00"
     inkscape:lockguides="true" />
  <path
     d="M 13.6625,2 C 18.39375,2.7981368 22,6.939049 22,11.929712 c 0,1.241266 -0.224166,2.427982 -0.630416,3.523635 z M 10.342916,2 C 5.6095835,2.7951994 2,6.936531 2,11.929712 c 0,1.241266 0.2241666,2.430919 0.6333334,3.529092 L 10.340416,2 Z M 6.1145835,18.06135 c -0.6075,0 -0.985417,-0.660498 -0.684167,-1.189652 L 11.316667,6.596211 c 0.304167,-0.529154 1.062083,-0.529154 1.365833,0 l 4.092084,7.143785 c 0.304166,0.529155 -0.07667,1.189653 -0.681668,1.189653 h -4.534583 c -1.017054,-0.03136 -1.019849,-1.551886 -0.0029,-1.587043 h 2.61 c 0.25,0 0.405833,-0.274438 0.280833,-0.491805 L 12.2825,9.072869 c -0.126539,-0.2172945 -0.438461,-0.2172945 -0.565,0 l -3.9558335,6.906696 c -0.124729,0.218313 0.03116,0.490901 0.28125,0.491806 l 11.5179175,-0.0058 c 0.25,0 0.405833,-0.274438 0.28125,-0.491807 L 12.2825,2.7721197 c -0.126539,-0.2172941 -0.438461,-0.2172941 -0.565,0 L 3.4654166,17.180965 C 5.2229165,20.072218 8.38625,22 11.99875,22 c 3.234166,0 6.105416,-1.547176 7.934166,-3.944105 z"
     style="fill:#1a1a1a;stroke-width:0.418146"
     id="path1"
     sodipodi:nodetypes="cscccsccccccccsccsccccccccccscc" />
</svg>
