<?xml version="1.0" encoding="UTF-8" standalone="no"?>
<svg
   width="24"
   height="24"
   viewBox="0 0 24 24"
   fill="none"
   stroke="currentColor"
   stroke-width="2"
   stroke-linecap="round"
   stroke-linejoin="round"
   class="icon icon-tabler icons-tabler-outline icon-tabler-device-mobile"
   version="1.1"
   id="svg4"
   sodipodi:docname="iphone.svg"
   inkscape:version="1.4 (e7c3feb1, 2024-10-09)"
   xmlns:inkscape="http://www.inkscape.org/namespaces/inkscape"
   xmlns:sodipodi="http://sodipodi.sourceforge.net/DTD/sodipodi-0.dtd"
   xmlns="http://www.w3.org/2000/svg"
   xmlns:svg="http://www.w3.org/2000/svg">
  <defs
     id="defs4" />
  <sodipodi:namedview
     id="namedview4"
     pagecolor="#ffffff"
     bordercolor="#000000"
     borderopacity="0.25"
     inkscape:showpageshadow="2"
     inkscape:pageopacity="0.0"
     inkscape:pagecheckerboard="0"
     inkscape:deskcolor="#d1d1d1"
     inkscape:zoom="27.416667"
     inkscape:cx="12.018237"
     inkscape:cy="12.492401"
     inkscape:window-width="1440"
     inkscape:window-height="1086"
     inkscape:window-x="1738"
     inkscape:window-y="30"
     inkscape:window-maximized="0"
     inkscape:current-layer="svg4" />
  <path
     stroke="none"
     d="M0 0h24v24H0z"
     fill="none"
     id="path1" />
  <path
     d="M 5.4541388,3.4077529 A 2.1818112,2.454928 0 0 1 7.6359501,0.95282488 H 16.363194 A 2.1818112,2.454928 0 0 1 18.545005,3.4077529 V 20.592247 a 2.1818112,2.454928 0 0 1 -2.181811,2.454928 H 7.6359501 A 2.1818112,2.454928 0 0 1 5.4541388,20.592247 V 3.4077529"
     id="path2"
     style="stroke-width:1.83202;stroke-dasharray:none" />
  <path
     d="m 10.475539,3.2457149 h 3.048066"
     id="path3"
     style="stroke-width:1.07473475;stroke-dasharray:none"
     sodipodi:nodetypes="cc" />
  <g
     id="g1"
     transform="translate(-0.08406905,-0.21884496)">
    <path
       d="m 13.083374,8.108456 0.06673,0.0033 c 0.39928,0.02708 0.95883,0.282847 1.258709,0.722055 a 0.27921682,0.27921682 0 0 1 -0.09604,0.402071 c -0.01395,0.0079 -0.103871,0.04412 -0.138772,0.06059 a 1.1587497,1.1587497 0 0 0 -0.201595,0.120353 c -0.171438,0.128715 -0.264695,0.281728 -0.263022,0.472994 0.0028,0.247107 0.09467,0.40598 0.25325,0.515433 0.05808,0.03993 0.121731,0.07064 0.185959,0.09214 0.03517,0.01204 0.118948,0.03239 0.123979,0.03406 a 0.27921682,0.27921682 0 0 1 0.184841,0.263023 c 0,0.731829 -0.848818,1.781684 -1.47594,1.781684 -0.220581,0 -0.355164,-0.02541 -0.553687,-0.08795 l -0.02736,-0.0087 c -0.129277,-0.04076 -0.19601,-0.05361 -0.316353,-0.05361 -0.145193,0 -0.240964,0.01675 -0.423853,0.06617 l -0.05501,0.0148 c -0.16055,0.04272 -0.269166,0.06311 -0.418825,0.06923 -0.767568,0 -1.47566,-1.422053 -1.47566,-2.533054 0,-1.080571 0.498682,-1.932182 1.47594,-1.932182 0.08292,0 0.16697,0.01258 0.253806,0.03574 0.112527,0.02987 0.216114,0.07259 0.361866,0.141842 0.219745,0.104428 0.264699,0.122856 0.28173,0.122856 h 0.0045 c 0.0084,-8.35e-4 0.03573,-0.01312 0.294854,-0.127601 0.296231,-0.130394 0.520443,-0.191263 0.766711,-0.171998 l -0.06701,-0.0033 z"
       id="path2-7"
       style="fill:#000000;stroke-width:0.279216" />
    <path
       d="m 12.782099,6.712651 a 0.27921682,0.27921682 0 0 1 0.279216,0.279217 0.83765045,0.83765045 0 0 1 -0.83765,0.83765 0.27921682,0.27921682 0 0 1 -0.279218,-0.279216 0.83765045,0.83765045 0 0 1 0.837652,-0.837651 z"
       id="path3-7"
       style="fill:#000000;stroke-width:0.279216" />
  </g>
</svg>
