<?xml version="1.0" encoding="UTF-8" standalone="no"?>
<svg
   width="24"
   height="24"
   viewBox="0 0 24 24"
   fill="currentColor"
   class="icon icon-tabler icons-tabler-filled icon-tabler-device-imac"
   version="1.1"
   id="svg2"
   sodipodi:docname="mac.svg"
   inkscape:version="1.4 (e7c3feb1, 2024-10-09)"
   xmlns:inkscape="http://www.inkscape.org/namespaces/inkscape"
   xmlns:sodipodi="http://sodipodi.sourceforge.net/DTD/sodipodi-0.dtd"
   xmlns="http://www.w3.org/2000/svg"
   xmlns:svg="http://www.w3.org/2000/svg">
  <defs
     id="defs2" />
  <sodipodi:namedview
     id="namedview2"
     pagecolor="#ffffff"
     bordercolor="#000000"
     borderopacity="0.25"
     inkscape:showpageshadow="2"
     inkscape:pageopacity="0.0"
     inkscape:pagecheckerboard="0"
     inkscape:deskcolor="#d1d1d1"
     inkscape:zoom="12.15609"
     inkscape:cx="10.899886"
     inkscape:cy="13.573443"
     inkscape:window-width="1288"
     inkscape:window-height="813"
     inkscape:window-x="178"
     inkscape:window-y="38"
     inkscape:window-maximized="0"
     inkscape:current-layer="svg2" />
  <path
     stroke="none"
     d="M0 0h24v24H0z"
     fill="none"
     id="path1" />
  <path
     d="M8 22a1 1 0 0 1 0 -2h.616l.25 -2h-4.866a2 2 0 0 1 -2 -2v-12a2 2 0 0 1 2 -2h16a2 2 0 0 1 2 2v12a2 2 0 0 1 -2 2h-4.867l.25 2h.617a1 1 0 0 1 0 2zm5.116 -4h-2.233l-.25 2h2.733z"
     id="path2" />
  <path
     d="m 12.891692,8.2260582 0.06673,0.00334 c 0.39928,0.027081 0.95883,0.2828469 1.258709,0.722055 a 0.27921682,0.27921682 0 0 1 -0.09604,0.4020707 c -0.01395,0.00789 -0.103871,0.044122 -0.138772,0.060591 A 1.1587497,1.1587497 0 0 0 13.780724,9.534468 c -0.171438,0.1287147 -0.264695,0.2817281 -0.263022,0.472994 0.0028,0.247108 0.09467,0.405981 0.25325,0.515434 0.05808,0.03993 0.121731,0.07064 0.185959,0.09214 0.03517,0.01204 0.118948,0.03239 0.123979,0.03406 a 0.27921682,0.27921682 0 0 1 0.184841,0.263023 c 0,0.731829 -0.848818,1.781684 -1.47594,1.781684 -0.220581,0 -0.355164,-0.02541 -0.553687,-0.08795 l -0.02736,-0.0087 c -0.129277,-0.04076 -0.19601,-0.05361 -0.316353,-0.05361 -0.145193,0 -0.240964,0.01675 -0.423853,0.06617 l -0.05501,0.0148 c -0.16055,0.04272 -0.269166,0.06311 -0.418825,0.06923 -0.767568,0 -1.4756604,-1.422053 -1.4756604,-2.533055 0,-1.0805705 0.4986824,-1.9321817 1.4759404,-1.9321817 0.08292,0 0.16697,0.012576 0.253806,0.035741 0.112527,0.029873 0.216114,0.072592 0.361866,0.1418421 0.219745,0.1044273 0.264699,0.1228562 0.28173,0.1228562 h 0.0045 c 0.0084,-8.359e-4 0.03573,-0.013124 0.294854,-0.1276016 0.296231,-0.1303936 0.520443,-0.1912631 0.766711,-0.1719981 l -0.06701,-0.00334 z"
     id="path2-7"
     style="fill:#ffffff;stroke-width:0.279216" />
  <path
     d="m 12.590417,6.8302533 a 0.27921682,0.27921682 0 0 1 0.279216,0.2792166 0.83765045,0.83765045 0 0 1 -0.83765,0.8376507 0.27921682,0.27921682 0 0 1 -0.279218,-0.2792167 0.83765045,0.83765045 0 0 1 0.837652,-0.8376506 z"
     id="path3"
     style="fill:#ffffff;stroke-width:0.279216" />
</svg>
